<?xml version="1.0" encoding="UTF-8"?>
<svg xmlns="http://www.w3.org/2000/svg" viewBox="0 0 1200 420" width="100%" height="auto" role="img" aria-labelledby="heroTitle heroDesc">
  <title id="heroTitle">AI Radar</title>
  <desc id="heroDesc">Radar-themed banner for AI Radar, a trending AI tool and skill monitor.</desc>
  <defs>
    <radialGradient id="heroGlow" cx="78%" cy="50%" r="40%">
      <stop offset="0%" stop-color="#1d2230"/>
      <stop offset="100%" stop-color="#0d0f17"/>
    </radialGradient>
    <linearGradient id="sweepGrad" x1="0" y1="0" x2="1" y2="0">
      <stop offset="0%" stop-color="#e0af68" stop-opacity="0"/>
      <stop offset="60%" stop-color="#e0af68" stop-opacity="0.10"/>
      <stop offset="100%" stop-color="#e0af68" stop-opacity="0.28"/>
    </linearGradient>
  </defs>
  <rect width="1200" height="420" fill="#0d0f17"/>
  <rect width="1200" height="420" fill="url(#heroGlow)"/>
  <g transform="translate(920,210)">
    <circle cx="0" cy="0" r="200" fill="none" stroke="#242938" stroke-width="1"/>
    <circle cx="0" cy="0" r="150" fill="none" stroke="#242938" stroke-width="1"/>
    <circle cx="0" cy="0" r="100" fill="none" stroke="#242938" stroke-width="1"/>
    <circle cx="0" cy="0" r="50"  fill="none" stroke="#363c52" stroke-width="1"/>
    <line x1="-200" y1="0" x2="200" y2="0" stroke="#242938" stroke-width="1"/>
    <line x1="0" y1="-200" x2="0" y2="200" stroke="#242938" stroke-width="1"/>
    <line x1="-141" y1="-141" x2="141" y2="141" stroke="#1d2230" stroke-width="1"/>
    <line x1="-141" y1="141" x2="141" y2="-141" stroke="#1d2230" stroke-width="1"/>
    <path d="M 0 0 L 200 0 A 200 200 0 0 0 141 -141 Z" fill="url(#sweepGrad)"/>
    <path d="M 0 0 L 200 0" stroke="#e0af68" stroke-width="2"/>
    <circle cx="95" cy="-70" r="5" fill="#9ece6a"/>
    <circle cx="95" cy="-70" r="9" fill="none" stroke="#9ece6a" stroke-opacity="0.3" stroke-width="1.5"/>
    <circle cx="40" cy="-110" r="4" fill="#7aa2f7"/>
    <circle cx="145" cy="-35" r="4" fill="#bb9af7"/>
    <circle cx="68" cy="-160" r="3" fill="#7dcfff"/>
    <circle cx="120" cy="-125" r="3" fill="#e0af68"/>
    <circle cx="0" cy="0" r="6" fill="#e0af68"/>
    <circle cx="0" cy="0" r="14" fill="none" stroke="#e0af68" stroke-opacity="0.4" stroke-width="1.5"/>
  </g>
  <g font-family="-apple-system,BlinkMacSystemFont,Segoe UI,system-ui,sans-serif" text-rendering="geometricPrecision">
    <text x="72" y="150" font-size="62" font-weight="700" fill="#e2e8f0">AI Radar</text>
    <rect x="74" y="170" width="240" height="4" rx="2" fill="#e0af68"/>
    <text x="72" y="212" font-size="22" font-weight="400" fill="#b8c2d8">Trending AI tools, skills and agents</text>
    <text x="72" y="242" font-size="22" font-weight="400" fill="#7d8aa8">discovered, scored and surfaced in one feed</text>
    <g transform="translate(72,285)">
      <rect x="0" y="0" width="96" height="30" rx="15" fill="#161a24" stroke="#9ece6a" stroke-width="1"/>
      <circle cx="18" cy="15" r="4" fill="#9ece6a"/>
      <text x="30" y="20" font-size="13" font-weight="600" fill="#9ece6a">GitHub</text>
      <rect x="112" y="0" width="120" height="30" rx="15" fill="#161a24" stroke="#7aa2f7" stroke-width="1"/>
      <circle cx="130" cy="15" r="4" fill="#7aa2f7"/>
      <text x="142" y="20" font-size="13" font-weight="600" fill="#7aa2f7">Hacker News</text>
      <rect x="248" y="0" width="72" height="30" rx="15" fill="#161a24" stroke="#bb9af7" stroke-width="1"/>
      <circle cx="266" cy="15" r="4" fill="#bb9af7"/>
      <text x="278" y="20" font-size="13" font-weight="600" fill="#bb9af7">RSS</text>
    </g>
    <text x="72" y="358" font-size="14" fill="#7d8aa8">5-dimension scoring . GLM Chinese translation . one-click Codex install</text>
  </g>
</svg>
